<svg width="96" height="31" viewBox="0 0 96 31" fill="none" xmlns="http://www.w3.org/2000/svg">
<path d="M6.68312 28.9971V27.6231C6.68312 27.0329 6.17852 26.5406 5.51732 26.4808C3.99656 26.3418 2.51408 25.9864 1.3506 25.5034C0.735799 25.2479 0.44 24.6207 0.67664 24.0562L0.77756 23.8162C1.04204 23.1869 1.85172 22.9047 2.5396 23.1848C3.89448 23.7369 5.5556 24.118 7.30952 24.118C10.2756 24.118 12.2801 22.6554 12.2801 20.6212C12.2801 18.5869 10.6515 17.4457 7.56008 16.3755C3.2994 14.9479 0.66736 13.3071 0.66736 10.2027C0.66736 7.49793 2.72288 5.38849 6.00684 4.63556C6.57756 4.50475 6.97544 4.04743 6.97544 3.52419V2.00391C6.97544 1.3684 7.55544 0.854431 8.27 0.854431C8.98572 0.854431 9.56456 1.36943 9.56456 2.00391V3.24403C9.56456 3.83525 10.0703 4.32244 10.7327 4.38836C11.9808 4.51196 13.0016 4.76431 13.8415 5.06919C14.498 5.30712 14.8147 5.96941 14.5549 6.55548L14.4632 6.76354C14.1999 7.35785 13.4378 7.65449 12.7743 7.40832C11.8103 7.05091 10.4601 6.70586 8.6876 6.70586C5.47092 6.70586 4.25988 8.34665 4.25988 9.77423C4.25988 11.6293 5.805 12.5573 9.44044 13.8417C13.7429 15.3404 15.9156 17.1954 15.9156 20.3709C15.9156 22.9696 13.9633 25.4158 10.2884 26.2573C9.71652 26.3881 9.31516 26.8444 9.31516 27.3697V28.9971C9.31516 29.6326 8.73516 30.1466 8.0206 30.1466H7.97884C7.26312 30.1466 6.68428 29.6316 6.68428 28.9971H6.68312Z" fill="#956AAD"/>
<path d="M25.8231 7.23425H18.1787V4.78387H36.7851V7.23425H29.1036V27.0999H25.822V7.23425H25.8231Z" fill="white"/>
<path d="M42.8276 4.78388V17.9947C42.8276 22.9943 45.3262 25.113 48.6821 25.113C52.4103 25.113 54.7976 22.9273 54.7976 17.9947V4.78388H58.0793V17.7959C58.0793 24.6495 54.0146 27.4635 48.5707 27.4635C43.425 27.4635 39.5471 24.8483 39.5471 17.9277V4.78285H42.8287L42.8276 4.78388Z" fill="white"/>
<path d="M63.7087 4.78387H77.2448V7.20128H66.9532V14.6183H76.4618V17.0017H66.9532V27.0999H63.7087V4.78387Z" fill="white"/>
<path d="M81.8685 4.78387H95.4046V7.20128H85.113V14.6183H94.6216V17.0017H85.113V27.0999H81.8685V4.78387Z" fill="white"/>
</svg>
